# xmcd
#
# Track frame offsets: 
#        150
#        29634
#        49884
#        85997
#        109931
#        136181
#        165088
#        198198
#        228905
#        253055
#        285178
#        300231
#
# Disc length: 4348 seconds
#
# Revision: 0
# Processed by: cddbd v1.5.2PL0 Copyright (c) Steve Scherf et al.
# Submitted via: ExactAudioCopy v0.99pb5
#
DISCID=9110fa0c
DTITLE=Various Artist - Deep Disco and Boogie
DYEAR=2012
DGENRE=Disco
TTITLE0=China Burton - You Don't Care (About Our Love) (Long Version)
TTITLE1=Ojeda Penn - Brotherson
TTITLE2=Walter Murphy - Afternoon Of A Faun
TTITLE3=Cash - Hot Thang
TTITLE4=Chemistry - Closer
TTITLE5=Roy Ayers - Rocke You Roll (Promo Mix)
TTITLE6=Razzmatazz - Set It Out
TTITLE7=Master Force - Don't Fight The Feeling (12'' Mix)
TTITLE8=G.C. Cameron - Live For Love (12'' Extended Mix)
TTITLE9=T.C. James And The Fist-O-Funk Orchestra - Bumpsie's Whipping 
TTITLE9=Cream (Savarese Mix)
TTITLE10=Ricky Womack And The Christian Essence - I Need You
TTITLE11=The Exoutics - If You Can't Find The Funk
EXTD=
EXTT0=
EXTT1=
EXTT2=
EXTT3=
EXTT4=
EXTT5=
EXTT6=
EXTT7=
EXTT8=
EXTT9=
EXTT10=
EXTT11=
PLAYORDER=
